# xmcd CD database file
#
# Track frame offsets:
#	150
#	26372
#	48625
#	62024
#	112051
#	146871
#	158110
#	205516
#	220747
#	245227
#
# Disc length: 3422 seconds
#
# Revision: 0
# Processed by: cddbd v1.5.1PL0 Copyright (c) Steve Scherf et al.
# Submitted via: CDex 1.51
#
DISCID=940d5c0a
DTITLE=Deep Sky Divers - Incandescent
DYEAR=2004
DGENRE=New Age
TTITLE0=skylander
TTITLE1=momentum
TTITLE2=lost without you
TTITLE3=distant sound of the sea
TTITLE4=music inspired by middle ear
TTITLE5=incandescent
TTITLE6=gradually becoming cyclonic
TTITLE7=rising on the other side of sorrow
TTITLE8=the boy who was born to be king
TTITLE9=parting roads
EXTD=YEAR: 2004
EXTT0=
EXTT1=
EXTT2=
EXTT3=
EXTT4=
EXTT5=
EXTT6=
EXTT7=
EXTT8=
EXTT9=
PLAYORDER=
